PathFileType	4	(X/Y/Z)	pose_F01_0-84.trc
DataRate	CameraRate	NumFrames	NumMarkers	Units	OrigDataRate	OrigDataStartFrame	OrigNumFrames
30	30	9	21	m	30	60	84
Frame#	Time	CHip			RHip			RKnee			RAnkle			RBigToe			RSmallToe			RHeel			LHip			LKnee			LAnkle			LBigToe			LSmallToe			LHeel			Neck			Nose			RShoulder			RElbow			RWrist			LShoulder			LElbow			LWrist			
		X1	Y1	Z1	X2	Y2	Z2	X3	Y3	Z3	X4	Y4	Z4	X5	Y5	Z5	X6	Y6	Z6	X7	Y7	Z7	X8	Y8	Z8	X9	Y9	Z9	X10	Y10	Z10	X11	Y11	Z11	X12	Y12	Z12	X13	Y13	Z13	X14	Y14	Z14	X15	Y15	Z15	X16	Y16	Z16	X17	Y17	Z17	X18	Y18	Z18	X19	Y19	Z19	X20	Y20	Z20	X21	Y21	Z21	
60	2.0	-0.22669547349046215	1.829077043575316	-0.408589124357104	-0.2420510317408948	1.8267968219544006	-0.3492745726521941	-0.19505387635293217	1.7238019510542522	-0.5078416355188038				-0.206526394023957	1.5667447983689506	-0.5680718513943285							-0.2172463879062795	1.8302761325405938	-0.47316701278242596	-0.19365743443925637	1.7147614991283195	-0.5041585509528509	-0.18877565856883954	1.5949043641979654	-0.5232909595211443	-0.20074861101340338	1.5727021026470889	-0.5395946720548643	-0.18948498393369806	1.5815199815555256	-0.556877476752815	-0.14904220959821038	1.5964487394729319	-0.5491040019934793	-0.2205690445699157	1.9774241120324476	-0.44535708459402107	-0.23044365264228522	2.0381045353060054	-0.4998493556934558	-0.2405239361491514	1.9773226818799587	-0.36037515914039203	-0.2508648934505492	1.8971923933881183	-0.31153361514903305	-0.26703104053333776	1.8315940280434089	-0.31569748620540944	-1.7258591982586522	1.8883172428028685	1.1553796195323416	-0.19388820349832642	1.9004506141223094	-0.5465197451278563	-0.19584342836968127	1.8323712658981914	-0.5495692861449556
61	2.033333333333333	-0.22842608975308965	1.8302570916416852	-0.4064957258178477	-0.24195719966803514	1.8285515620116004	-0.34926553141994415	-0.19505387635293217	1.7238019510542522	-0.5078416355188038				-0.206526394023957	1.5667447983689506	-0.5680718513943285							-0.2180784749163291	1.8320406876846307	-0.46783532610964657	-0.19365743443925637	1.7147614991283195	-0.5041585509528509	-0.18877565856883954	1.5949043641979654	-0.5232909595211443	-0.20074861101340338	1.5727021026470889	-0.5395946720548643	-0.18948498393369806	1.5815199815555256	-0.556877476752815	-0.14904220959821038	1.5964487394729319	-0.5491040019934793	-0.22155996466323213	1.9759133790698773	-0.4399385667769341	-0.23226735100152787	2.0395171509516543	-0.4974407503503815	-0.23845224861358005	1.9782554513492598	-0.3541442908797066	-0.250052814327188	1.8991066348496117	-0.30878557862856326	-0.26351652075903204	1.830704106179338	-0.3200442512603182	-1.7273120996198679	1.8882596564792888	1.1572944789513058	-0.19220979039441966	1.8998194496056147	-0.5311107012109068	-0.20015637334695205	1.831623169209806	-0.5447672419928715
62	2.066666666666667	-0.22906428310823934	1.827820563840833	-0.4003709519357166	-0.24023414807633617	1.8303664511636868	-0.33674325435765945	-0.19505387635293217	1.7238019510542522	-0.5078416355188038				-0.206526394023957	1.5667447983689506	-0.5680718513943285							-0.21661852242383617	1.829497023799738	-0.4555435441239517	-0.19365743443925637	1.7147614991283195	-0.5041585509528509	-0.18877565856883954	1.5949043641979654	-0.5232909595211443	-0.20074861101340338	1.5727021026470889	-0.5395946720548643	-0.18948498393369806	1.5815199815555256	-0.556877476752815	-0.14904220959821038	1.5964487394729319	-0.5491040019934793	-0.22249161879843637	1.9767060768489122	-0.434401584311378	-0.234169292195993	2.0397265250698444	-0.49514436256152866	-0.24102157200902172	1.976377571751726	-0.34609009632386367	-0.2503800389273304	1.8957269162406543	-0.3024614140224269	-0.2625143359335889	1.828162584284202	-0.32530575313415433	-1.7402698957665672	1.8879743260590676	1.178238577139765	-0.19534217587117816	1.8987232402656746	-0.523353581817571	-0.2031690479363261	1.8339741849480393	-0.5375433734944309
63	2.1	-0.23206365472044785	1.826082536460961	-0.38322510580376207	-0.24102071785446136	1.8265046997545498	-0.32181789218669915	-0.19505387635293217	1.7238019510542522	-0.5078416355188038				-0.206526394023957	1.5667447983689506	-0.5680718513943285							-0.21795038598521418	1.826496788104561	-0.4492793537001778	-0.19365743443925637	1.7147614991283195	-0.5041585509528509	-0.18877565856883954	1.5949043641979654	-0.5232909595211443	-0.20074861101340338	1.5727021026470889	-0.5395946720548643	-0.18948498393369806	1.5815199815555256	-0.556877476752815	-0.14904220959821038	1.5964487394729319	-0.5491040019934793	-0.22527033875419097	1.9765330537148633	-0.4266931464894759	-0.2332203531498406	2.0396688982312745	-0.48349850026180585	-0.24087359561111654	1.979758440226336	-0.3383197046065495	-0.25431212501211714	1.8955756011693847	-0.2982721338442775	-0.25724438684121975	1.8294427192560516	-0.30841376482771027	-0.20337902646311798	1.9780583373084304	-0.5120385071332709	-0.19857774323728708	1.8991110856295477	-0.5154635615514847	-0.20938535270207487	1.8321540877002684	-0.5300022430927878
64	2.1333333333333333	-0.230840401245752	1.8278677413667124	-0.3710957934629079	-0.24256363099723569	1.826005932572592	-0.31075320206860507	-0.19505387635293217	1.7238019510542522	-0.5078416355188038				-0.206526394023957	1.5667447983689506	-0.5680718513943285							-0.22197056320347314	1.8304592402809856	-0.436485147405365	-0.19365743443925637	1.7147614991283195	-0.5041585509528509	-0.18877565856883954	1.5949043641979654	-0.5232909595211443	-0.20074861101340338	1.5727021026470889	-0.5395946720548643	-0.18948498393369806	1.5815199815555256	-0.556877476752815	-0.14904220959821038	1.5964487394729319	-0.5491040019934793	-0.2270443163606835	1.976203613602093	-0.40701535634102026	-0.23224202527032928	2.0390001004503167	-0.47185112870045604	-0.24715482764619426	1.9772387740480928	-0.32587152825157845	-0.2563266045483892	1.8938897169614197	-0.2813277368057764	-0.261924279118117	1.8274508461600119	-0.30722429166201043	-0.20288715011115085	1.9751741996733192	-0.49146428101600365	-0.20267170245657457	1.8999744348816832	-0.5018810920798701	-0.2085778183528141	1.8356720775644413	-0.5182744024355145
65	2.1666666666666665	-0.2333302267984785	1.827396993798682	-0.3633670395139447	-0.2456879285463947	1.8260828793804533	-0.3069500950791605	-0.19505387635293217	1.7238019510542522	-0.5078416355188038				-0.206526394023957	1.5667447983689506	-0.5680718513943285							-0.22573140413777057	1.8304320621488022	-0.4229137070847542	-0.19365743443925637	1.7147614991283195	-0.5041585509528509	-0.18877565856883954	1.5949043641979654	-0.5232909595211443	-0.20074861101340338	1.5727021026470889	-0.5395946720548643	-0.18948498393369806	1.5815199815555256	-0.556877476752815	-0.14904220959821038	1.5964487394729319	-0.5491040019934793	-0.2306158044713402	1.9756780821080515	-0.39387728528923893	-0.23708718696583855	2.0382158906113825	-0.4620014108795979	-0.24858825870825882	1.9769182492750859	-0.31495569914261534	-0.25766469293004485	1.8956631242359203	-0.2708050219651617	-0.26517712093590734	1.8258073755437012	-0.29382167004077797	-0.20973436322007855	1.9760927446564391	-0.47919389043310984	-0.19999881178772683	1.8981005725903437	-0.4832193014418675	-0.20894735980694978	1.8322159621998144	-0.5004430515407577
66	2.2	-0.237040650833562	1.8274565861570624	-0.35904461645089786	-0.24881222609555376	1.8261598261883145	-0.30314698808971585	-0.19505387635293217	1.7238019510542522	-0.5078416355188038				-0.206526394023957	1.5667447983689506	-0.5680718513943285							-0.22531852789056905	1.825577234253234	-0.4134759610453476	-0.19365743443925637	1.7147614991283195	-0.5041585509528509	-0.18877565856883954	1.5949043641979654	-0.5232909595211443	-0.20074861101340338	1.5727021026470889	-0.5395946720548643	-0.18948498393369806	1.5815199815555256	-0.556877476752815	-0.14904220959821038	1.5964487394729319	-0.5491040019934793	-0.23161197637383776	1.9752521774190985	-0.38814857797475016	-0.24192316692722857	2.040898894376347	-0.45333154554151306	-0.24892221196659292	1.9772755511753868	-0.3006260862385718	-0.2631627912732189	1.8921024230186132	-0.26382630450722633	-0.2667484067609488	1.8246623764275371	-0.28264252008650814	-0.2126315006591297	1.9763273811725433	-0.47135385103523575	-0.2059107297847888	1.897818540324027	-0.47617587345062806	-0.21155631947820072	1.8305405797162266	-0.49243150425250476
67	2.2333333333333334	-0.2407510748686455	1.8275161785154428	-0.35472219338785105	-0.25193652364471275	1.8262367729961757	-0.2993438811002712	-0.19505387635293217	1.7238019510542522	-0.5078416355188038				-0.206526394023957	1.5667447983689506	-0.5680718513943285							-0.23105313125417729	1.8271194011159198	-0.4071905515753103	-0.19365743443925637	1.7147614991283195	-0.5041585509528509	-0.18877565856883954	1.5949043641979654	-0.5232909595211443	-0.20074861101340338	1.5727021026470889	-0.5395946720548643	-0.18948498393369806	1.5815199815555256	-0.556877476752815	-0.14904220959821038	1.5964487394729319	-0.5491040019934793	-0.23736495942105418	1.9763592068881795	-0.3820095797672906	-0.24285713513784496	2.0408257073115226	-0.44802334865117666	-0.2544328432906722	1.9784714389624891	-0.2947483341103199	-0.2668743941199519	1.8906753293171035	-0.2593355265342373	-0.27227788162090716	1.8205595520868842	-0.27576629206213715	-0.2138037395418752	1.9772981304390311	-0.4662168363136485	-0.21187339616315237	1.897909955086619	-0.46947096849758474	-0.2158450026751147	1.8300367147458025	-0.4877485447405953
68	2.2666666666666666	-0.24446149890372898	1.8275757708738232	-0.3503997703248042	-0.2550608211938718	1.8263137198040371	-0.29554077411082663	-0.19505387635293217	1.7238019510542522	-0.5078416355188038				-0.206526394023957	1.5667447983689506	-0.5680718513943285							-0.23210227682787762	1.830151801449681	-0.410876682638799	-0.19365743443925637	1.7147614991283195	-0.5041585509528509	-0.18877565856883954	1.5949043641979654	-0.5232909595211443	-0.20074861101340338	1.5727021026470889	-0.5395946720548643	-0.18948498393369806	1.5815199815555256	-0.556877476752815	-0.14904220959821038	1.5964487394729319	-0.5491040019934793	-0.24008312176212968	1.9761105343468013	-0.374722016327861	-0.244930184712049	2.0433683090166905	-0.44677997628426086	-0.2563784475995084	1.9772443031942015	-0.2924705261857074	-0.2687781846179726	1.8953956112589856	-0.2579724038642734	-0.2760978760216537	1.8252271723505358	-0.272073348482517	-0.21674799305421016	1.9767760498884592	-0.45866449643720675	-0.21391815950779386	1.8973892041506788	-0.4672435536687942	-0.21780080668547902	1.8315790574777857	-0.4856702495934704
